<svg width="64" height="64" viewBox="0 0 64 64" fill="none" xmlns="http://www.w3.org/2000/svg">
<path d="M0.313641 15.7608C-0.0707974 7.6455 -0.311894 -2.02868 0.888889 0.37289C1.67177 1.93865 3.83368 2.27861 6.17505 2.1125C11.3905 1.7425 16.5823 0.541227 21.8007 0.867377C27.1329 1.20064 32.335 2.65418 37.0677 5.1332L41.946 7.6885C47.823 10.767 52.8807 15.2033 56.6988 20.6291L57.6251 21.9454C59.4569 24.5484 60.8799 27.4162 61.845 30.4493L63.0059 34.0976C63.5878 35.9267 63.7729 37.859 63.5486 39.7653L63.1924 42.7932C62.9982 44.4436 62.1503 45.9473 60.8386 46.9676C59.2965 48.167 57.283 48.5561 55.37 48.1597C52.2348 47.5101 47.9121 46.9198 48.8889 48.8729C49.7551 50.6049 49.621 52.3371 49.353 53.4919C49.1335 54.4376 48.7701 55.348 48.5346 56.2899L47.9647 58.5697C47.5922 60.0596 46.7182 61.3759 45.4896 62.2974C44.1393 63.3101 42.456 63.7747 40.7774 63.598L36.1785 63.1139C34.658 62.9538 33.1632 62.6055 31.7286 62.077L29.6574 61.3139C26.166 60.0276 22.894 58.2102 19.9569 55.9258L19.2818 55.4007C13.7747 51.1174 9.43116 45.5201 6.64938 39.122L4.92835 35.1636C2.25521 29.0154 0.630877 22.4575 0.313641 15.7608Z" fill="url(#paint0_linear_51_7)"/>
<defs>
<linearGradient id="paint0_linear_51_7" x1="44.5" y1="58.5" x2="-3.88063e-06" y2="-13.5" gradientUnits="userSpaceOnUse">
<stop stop-color="#FFC6D1"/>
<stop offset="0.373333" stop-color="#FED7DE"/>
<stop offset="1" stop-color="#FDF4F3"/>
</linearGradient>
</defs>
</svg>
